<?xml version="1.0" encoding="UTF-8"?>
<svg version="1.1" xmlns="http://www.w3.org/2000/svg" width="612" height="608">
<path d="M0 0 C3.29070554 0.00314923 6.58049915 -0.02035337 9.87109375 -0.0456543 C24.19920978 -0.08892142 38.05133041 1.01283896 52.19140625 3.31567383 C54.11702393 3.62831177 54.11702393 3.62831177 56.08154297 3.94726562 C107.79947965 13.09162952 158.00034117 36.58670157 198.19140625 70.31567383 C198.76552246 70.78972656 199.33963867 71.2637793 199.93115234 71.75219727 C214.57951385 83.88181803 228.64901609 97.15983416 240.19140625 112.31567383 C241.17836467 113.56411657 242.16676122 114.81142315 243.15625 116.05786133 C281.54240275 164.81661511 309.29596723 227.76438622 309.359375 290.62817383 C309.3627034 291.79590332 309.3660318 292.96363281 309.36946106 294.16674805 C309.3745044 296.63093678 309.37687019 299.09513228 309.37670898 301.55932617 C309.37888328 305.27640445 309.3970336 308.99317965 309.41601562 312.71020508 C309.44737166 325.40503362 309.21941307 337.76743287 307.19140625 350.31567383 C306.98878174 351.57395996 306.78615723 352.83224609 306.57739258 354.12866211 C305.9337995 357.88930283 305.23452513 361.63350918 304.50390625 365.37817383 C304.37612793 366.03633087 304.24834961 366.69448792 304.11669922 367.37258911 C301.59387316 380.26202475 298.28766873 392.83460786 294.19140625 405.31567383 C293.96018066 406.03110352 293.72895508 406.7465332 293.49072266 407.48364258 C281.93004833 442.5880914 261.11965556 476.80352429 235.78515625 503.62036133 C233.99147415 505.5283467 232.21613842 507.4525535 230.44140625 509.37817383 C229.12920524 510.79511744 227.81670747 512.2117863 226.50390625 513.62817383 C225.89844971 514.28599854 225.29299316 514.94382324 224.66918945 515.62158203 C220.97198843 519.58626786 217.12575572 523.23187256 212.98950195 526.73730469 C211.24487147 528.26874204 209.65325052 529.87291417 208.06640625 531.56567383 C202.62017237 537.07310134 196.35804082 541.65584559 190.19140625 546.31567383 C189.50079102 546.84 188.81017578 547.36432617 188.09863281 547.90454102 C177.68283337 555.7648967 166.98311852 562.73537192 155.54736328 569.02026367 C154.00754837 569.86692252 152.47184738 570.72111848 150.94091797 571.58374023 C107.61711988 595.9825305 59.55283822 607.18356484 10.19140625 608.31567383 C9.1977002 608.33903809 8.20399414 608.36240234 7.18017578 608.38647461 C-79.24116806 610.12336701 -157.51661269 574.23992187 -219.15625 515.06176758 C-223.61283352 510.67387898 -227.78776837 506.10452204 -231.80859375 501.31567383 C-232.25299805 500.79038086 -232.69740234 500.26508789 -233.15527344 499.72387695 C-266.94687446 459.61712427 -289.08100314 412.82212031 -298.80859375 361.31567383 C-299.01597168 360.27314453 -299.22334961 359.23061523 -299.43701172 358.15649414 C-305.51532024 326.58772974 -305.74814102 290.92388451 -299.80859375 259.31567383 C-299.60991699 258.22593262 -299.41124023 257.13619141 -299.20654297 256.01342773 C-288.64124723 199.4356755 -264.05051914 147.42990378 -225.80859375 104.31567383 C-225.3698291 103.8205127 -224.93106445 103.32535156 -224.47900391 102.81518555 C-214.04532432 91.09490119 -203.18502098 79.99641348 -190.80859375 70.31567383 C-189.7525948 69.45921538 -188.69796352 68.60106854 -187.64453125 67.74145508 C-157.65869686 43.45074047 -122.45495552 25.14843036 -85.80859375 13.31567383 C-84.9151123 13.02611816 -84.02163086 12.7365625 -83.10107422 12.43823242 C-55.99278897 3.81817316 -28.36504667 -0.05651242 0 0 Z " fill="#563002" transform="translate(302.80859375,-0.315673828125)"/>
<path d="M0 0 C1.63240631 -0.01469078 1.63240631 -0.01469078 3.29779053 -0.02967834 C47.65889069 -0.3471982 47.65889069 -0.3471982 68.28125 4.23828125 C69.80613037 4.55176514 69.80613037 4.55176514 71.36181641 4.87158203 C94.95610431 9.7422136 117.65351032 17.64889094 139.28125 28.23828125 C140.54630371 28.85243896 140.54630371 28.85243896 141.83691406 29.47900391 C174.8004224 45.63988528 207.7998229 69.5208889 230.9140625 98.31640625 C232.44334232 100.20403216 233.999175 102.07058752 235.5859375 103.91015625 C263.62163056 136.44994426 283.34121291 175.8143649 293.81103516 217.37304688 C294.22741095 219.02471408 294.66489192 220.67102927 295.10546875 222.31640625 C299.92721521 241.39929699 301.98963134 260.60037629 301.28125 280.23828125 C300.45882812 280.52960938 299.63640625 280.8209375 298.7890625 281.12109375 C291.42631778 283.82473442 284.83781984 286.93136968 278.28125 291.23828125 C278.3534375 290.56023437 278.425625 289.8821875 278.5 289.18359375 C278.79715041 286.20383545 279.04954693 283.22383222 279.28125 280.23828125 C279.34957031 279.39007813 279.41789063 278.541875 279.48828125 277.66796875 C279.85084021 269.31568464 277.60983086 261.65583356 272.21875 255.17578125 C269.7308945 252.476755 267.53594344 250.42648527 263.78125 249.86328125 C261.23006785 250.03366396 261.23006785 250.03366396 259.46875 251.67578125 C256.32298811 258.46400427 258.74345827 265.55317263 260.61328125 272.41796875 C261.42544728 275.8471142 261.51981089 278.73938818 261.28125 282.23828125 C257.25493814 284.849943 254.2434133 285.41551766 249.55078125 285.33203125 C248.56311768 285.31849609 247.5754541 285.30496094 246.55786133 285.29101562 C245.43093872 285.26491211 245.43093872 285.26491211 244.28125 285.23828125 C244.19488281 283.92859375 244.10851562 282.61890625 244.01953125 281.26953125 C240.2840522 230.6528516 221.05060882 183.21043037 187.28125 145.23828125 C186.84490234 144.74021973 186.40855469 144.2421582 185.95898438 143.72900391 C160.06456471 114.21895601 126.96557338 92.85125908 90.28125 79.23828125 C89.54326172 78.95855469 88.80527344 78.67882812 88.04492188 78.390625 C75.74568793 73.77423075 63.17155114 71.08292595 50.25561523 68.77416992 C48.32654096 68.42661037 46.40106375 68.05819258 44.48071289 67.6652832 C35.48104806 65.93086415 26.59861323 65.88458746 17.46875 65.92578125 C16.65377045 65.92727173 15.83879089 65.92876221 14.99911499 65.93029785 C1.56866561 65.97436716 -11.49126098 66.7735484 -24.71875 69.23828125 C-25.47994141 69.37218262 -26.24113281 69.50608398 -27.02539062 69.64404297 C-68.5383908 77.10878254 -108.37321852 97.95173641 -139.015625 126.72265625 C-141.22491012 128.77869616 -143.46873383 130.73928397 -145.78125 132.67578125 C-188.27179872 169.8331541 -207.62653928 224.95167372 -214.71875 279.23828125 C-219.50887753 278.71800523 -223.31802318 277.76455712 -227.65625 275.67578125 C-228.61402344 275.22074219 -229.57179687 274.76570313 -230.55859375 274.296875 C-231.27144531 273.94753906 -231.98429687 273.59820312 -232.71875 273.23828125 C-232.43 272.63242187 -232.14125 272.0265625 -231.84375 271.40234375 C-229.21025154 265.45868403 -227.38768439 259.77369346 -228.71875 253.23828125 C-230.58291399 250.84379475 -231.39902172 250.31263666 -234.40625 249.61328125 C-241.42879143 250.93828907 -245.59893089 256.82595974 -249.53125 262.42578125 C-250.59447941 264.02946456 -251.65702656 265.63360051 -252.71875 267.23828125 C-253.70888969 268.57895316 -254.70565574 269.91486983 -255.71875 271.23828125 C-261.98205375 270.32028311 -267.16332796 267.10756516 -272.71875 264.23828125 C-272.19772837 255.4634161 -271.16677827 246.93598866 -269.53125 238.30078125 C-269.31130371 237.13345459 -269.09135742 235.96612793 -268.86474609 234.76342773 C-263.95525066 209.48485891 -255.88043544 185.42768667 -244.71875 162.23828125 C-244.21335693 161.17843018 -244.21335693 161.17843018 -243.69775391 160.09716797 C-234.74407599 141.56759992 -222.75189852 124.13395158 -209.71875 108.23828125 C-209.29319824 107.7179834 -208.86764648 107.19768555 -208.42919922 106.66162109 C-165.79227683 54.76053329 -106.12109488 16.90967588 -39.71875 4.23828125 C-38.92484863 4.08278809 -38.13094727 3.92729492 -37.31298828 3.76708984 C-24.86757159 1.34967216 -12.6862116 0.09454289 0 0 Z " fill="#FEB662" transform="translate(291.71875,18.76171875)"/>
<path d="M0 0 C3.5770054 1.2328219 5.77213341 2.39204334 8.1875 5.3125 C8.67605469 5.88613281 9.16460937 6.45976562 9.66796875 7.05078125 C13.68094581 12.92314358 13.89410782 19.72352817 14.6796875 26.60742188 C15.40883016 32.1381347 16.49711467 35.62499713 20 40 C25.1797573 39.70938023 25.1797573 39.70938023 29.3125 36.8125 C34.54574923 28.09041794 34.15815426 17.27419416 32 7.5625 C31.67 6.386875 31.34 5.21125 31 4 C37.28436827 4.5320861 42.53134309 6.04523893 48.375 8.375 C49.18066406 8.67921875 49.98632812 8.9834375 50.81640625 9.296875 C51.58597656 9.59851563 52.35554688 9.90015625 53.1484375 10.2109375 C53.84114746 10.48212402 54.53385742 10.75331055 55.24755859 11.03271484 C57 12 57 12 59 15 C59.51489258 17.56176758 59.51489258 17.56176758 59.89453125 20.64453125 C60.04253174 21.78535156 60.19053223 22.92617188 60.34301758 24.1015625 C60.57541138 25.93847656 60.57541138 25.93847656 60.8125 27.8125 C69.16996986 89.34993232 99.51660025 149.98014504 149.69555664 188.1652832 C151.45112294 189.46198852 153.22218143 190.73399929 155 192 C155.64275879 192.46535156 156.28551758 192.93070313 156.94775391 193.41015625 C174.30822867 205.87280863 193.59456013 216.49641124 214 223 C214.75522949 223.2479834 215.51045898 223.4959668 216.28857422 223.75146484 C235.63807612 230.06370928 254.93312621 234.08640791 275.32421875 234.23828125 C276.38751907 234.246353 277.4508194 234.25442474 278.54634094 234.26274109 C280.79105034 234.27649947 283.03577994 234.28725803 285.28051758 234.29516602 C287.5286289 234.30660392 289.77671486 234.32692299 292.0246582 234.35668945 C350.19918721 235.1240051 404.32796803 210.87877318 445.76879883 170.51855469 C453.36285542 163.00554543 460.41587615 155.34286969 466.72900391 146.72412109 C468.06022701 144.91830136 469.42368433 143.14037737 470.79296875 141.36328125 C477.41520518 132.68099605 482.92510068 123.65913812 488 114 C488.33596191 113.3704541 488.67192383 112.7409082 489.01806641 112.09228516 C505.16286496 81.69976091 512.4263073 50.71552532 518 17 C525.35785122 16.31024668 532.60766138 15.85280742 540 16 C540.25523437 17.30324219 540.25523437 17.30324219 540.515625 18.6328125 C542.1748144 27.58431243 542.1748144 27.58431243 547 35 C549.8845108 36.41142752 549.8845108 36.41142752 553 36 C557.33752672 33.175564 558.28022213 30.33471912 559.3125 25.5 C560.30799656 21.30307701 561.15154608 19.2462997 564.8125 16.875 C568.1069085 15.07326761 571.29755971 14.51760221 575 14 C575.77273775 39.07104684 569.84095794 64.32073843 562 88 C561.60039063 89.22589844 561.20078125 90.45179688 560.7890625 91.71484375 C548.11454818 128.84521625 526.29554745 163.77896701 498 191 C495.47675401 193.50686128 492.97226566 196.02851194 490.4921875 198.578125 C484.3312699 204.86777819 477.94539435 210.56858807 471 216 C469.99195313 216.80179688 468.98390625 217.60359375 467.9453125 218.4296875 C440.81233052 239.84186002 409.78831417 256.17704517 377 267 C376.24525391 267.24975586 375.49050781 267.49951172 374.71289062 267.75683594 C363.33193979 271.45641463 351.76098127 273.85592562 340 276 C339.21947266 276.14711426 338.43894531 276.29422852 337.63476562 276.44580078 C326.77900845 278.48412775 316.05150522 279.74275637 305 280 C303.9265332 280.02723145 302.85306641 280.05446289 301.74707031 280.08251953 C227.69100948 281.68716844 158.55495853 259.1888332 101 212 C100.43071777 211.53513184 99.86143555 211.07026367 99.27490234 210.59130859 C85.9470457 199.63819269 73.53082082 187.69543081 63 174 C61.97300779 172.68982854 60.94563534 171.37995507 59.91796875 170.0703125 C22.28637222 121.81091578 -0.75777297 61.63220144 0 0 Z " fill="#FDE4A4" transform="translate(18,309)"/>
<path d="M0 0 C1.39419489 0.27126574 2.78873016 0.54078773 4.18359375 0.80859375 C57.28603776 11.57502615 106.65277976 46.61744877 136.6015625 91.39453125 C155.73987553 121.1598975 169.47208974 155.24607789 170 191 C165.95472269 190.4826381 162.17725249 189.86424037 158.3125 188.5625 C147.57520224 185.25242611 137.00184188 184.6521484 125.85522461 184.68432617 C123.5690149 184.68749098 121.28409831 184.66391722 118.99804688 184.63867188 C110.92028039 184.60561323 103.65487342 185.14563014 95.81225586 187.35473633 C92.76060846 188.05492767 90.12082352 188.20855344 87 188 C85.20703125 186.5390625 85.20703125 186.5390625 83.8125 184.625 C81.89586289 182.05892387 80.75278522 180.83519015 78 179 C79.485 174.05 79.485 174.05 81 169 C84.92450857 168.21509829 86.83797745 167.9910945 90.5625 168.3125 C100.56378746 168.37194302 108.79829497 162.06887886 115.75 155.41796875 C123.61444715 146.96641878 131.58868067 135.38378977 131.3203125 123.44140625 C129.04096368 106.06832077 104.22453066 87.10235675 91.40234375 76.76953125 C87.0120738 73.53572265 83.42410542 71.67346329 78.0625 70.5625 C72.20278855 69.16359203 68.53350811 67.13023435 63.9140625 63.24609375 C48.76727816 50.7218109 30.38998704 41.73779064 10.5234375 40.65625 C-8.46311692 39.60576441 -8.46311692 39.60576441 -17.0859375 33.0703125 C-24.42868049 27.85361842 -30.70295834 26.40043898 -39.625 26.6875 C-40.61193848 26.70586914 -41.59887695 26.72423828 -42.61572266 26.74316406 C-44.69002094 26.78712357 -46.7641226 26.84148137 -48.83789062 26.90576172 C-51.99098744 26.9997314 -55.14276274 27.05098325 -58.296875 27.09765625 C-60.32297912 27.14588157 -62.34902618 27.19658045 -64.375 27.25 C-65.30650879 27.26377686 -66.23801758 27.27755371 -67.19775391 27.29174805 C-74.64177166 27.56428712 -80.98207478 29.05000236 -86.4296875 34.375 C-92.98557098 45.3340888 -94.13664516 59.41988718 -94.25 71.9375 C-94.26401855 73.00242676 -94.26401855 73.00242676 -94.27832031 74.08886719 C-94.25168173 78.41866149 -93.72654897 82.01799446 -92 86 C-87.20924792 88.39537604 -81.25219153 87.26842231 -76.32421875 85.72265625 C-74.77373376 85.18318675 -73.22806856 84.62966804 -71.6875 84.0625 C-70.12928163 83.51065767 -68.57070006 82.95983955 -67.01171875 82.41015625 C-66.33584717 82.16402588 -65.65997559 81.91789551 -64.96362305 81.66430664 C-62.99346387 80.99778879 -61.02370278 80.47648103 -59 80 C-59.15984375 81.20140625 -59.3196875 82.4028125 -59.484375 83.640625 C-60.18590321 90.00413267 -60.22254748 96.35356272 -60.25 102.75 C-60.270625 103.9359375 -60.29125 105.121875 -60.3125 106.34375 C-60.34460239 113.69519621 -59.52731561 120.17812177 -57.54980469 127.26660156 C-57.00247584 129.98769117 -57.07133853 131.42346493 -58 134 C-63.04148072 135.459376 -66.32202603 134.49888294 -71.1015625 132.85546875 C-74.03889233 131.90841045 -74.03889233 131.90841045 -77.3359375 131.55078125 C-85.46114148 130.42975421 -89.80160319 127.98767682 -95.18798828 122.03613281 C-105.46218982 110.78837456 -124.83774497 95.32679146 -140.4375 93.625 C-144.02680703 93.66889134 -144.02680703 93.66889134 -146.25 95.875 C-153.08959187 108.08855692 -153.32518929 122.92045913 -153.20581055 136.58544922 C-153.18740262 138.76151161 -153.18530286 140.93714849 -153.18554688 143.11328125 C-153.16838182 151.67562546 -153.16838182 151.67562546 -152.26171875 160.18359375 C-152 164 -152 164 -153.4765625 166.86328125 C-154.18554688 167.67152344 -154.89453125 168.47976563 -155.625 169.3125 C-163.88695267 179.62549687 -167.11639444 191.48817434 -167.625 204.5 C-167.66367188 205.32242188 -167.70234375 206.14484375 -167.7421875 206.9921875 C-167.83531692 208.9944701 -167.91868985 210.99720262 -168 213 C-168.72775635 213.05945801 -169.4555127 213.11891602 -170.20532227 213.18017578 C-195.61469341 215.34564522 -217.34203982 220.58021354 -240.59423828 231.0637207 C-243.05401151 232.02102031 -245.40183311 232.5609914 -248 233 C-248.93741736 230.18774793 -249.14633903 228.38325292 -249.19287109 225.46630859 C-249.20870743 224.54534897 -249.22454376 223.62438934 -249.24085999 222.67552185 C-249.25161057 221.67658401 -249.26236115 220.67764618 -249.2734375 219.6484375 C-249.28592026 218.60974014 -249.29840302 217.57104279 -249.31126404 216.50086975 C-249.71846485 174.48365529 -249.71846485 174.48365529 -244 155 C-243.59641209 153.46194216 -243.19654898 151.92290114 -242.80078125 150.3828125 C-241.68874404 146.19883645 -240.39891478 142.09625893 -239 138 C-238.76087891 137.29391602 -238.52175781 136.58783203 -238.27539062 135.86035156 C-230.55862097 113.55313439 -218.05448308 93.10087161 -203 75 C-202.29230469 74.10796875 -201.58460938 73.2159375 -200.85546875 72.296875 C-169.44327329 32.90785232 -119.46479673 4.50739525 -69.52099609 -2.22607422 C-46.92992715 -4.67268973 -22.23259151 -4.92212758 0 0 Z " fill="#FDF7D8" transform="translate(346,107)"/>
<path d="M0 0 C14.20914453 -0.64000931 24.40907479 1.5339677 35.703125 10.546875 C40.28390065 13.08621802 44.46476398 13.04910172 49.625 13.27734375 C73.68869009 14.90716303 94.71369732 23.13479031 113.03515625 39.0078125 C115.5893752 41.06012571 117.16868185 42.09441489 120.25 42.96484375 C121.02085937 43.20203125 121.79171875 43.43921875 122.5859375 43.68359375 C124.10445769 44.10736683 125.63056524 44.50520668 127.1640625 44.87109375 C134.37125646 46.8065946 138.6676502 51.24193032 143.9375 56.33984375 C145.22180146 57.45256859 146.51304288 58.55735608 147.8125 59.65234375 C175.6986591 84.045691 175.6986591 84.045691 178.375 97.546875 C179.0788023 110.10534727 170.32662068 120.49432269 162.6875 129.52734375 C156.47232337 136.28528409 147.84705196 143.01478589 138.38671875 143.53515625 C136.52466797 143.50035156 136.52466797 143.50035156 134.625 143.46484375 C133.37074219 143.44679688 132.11648438 143.42875 130.82421875 143.41015625 C129.87160156 143.38695312 128.91898438 143.36375 127.9375 143.33984375 C127.79957031 143.89671875 127.66164063 144.45359375 127.51953125 145.02734375 C124.73538172 153.39392508 118.34691227 156.53084833 110.9375 160.33984375 C110.33405762 160.65727539 109.73061523 160.97470703 109.10888672 161.30175781 C94.05261903 169.12892977 79.84445396 172.40122939 62.9375 171.33984375 C61.93976563 171.28054688 60.94203125 171.22125 59.9140625 171.16015625 C46.60328892 169.52129224 34.22583805 161.59078239 25.9375 151.33984375 C20.9375 144.50613077 20.9375 144.50613077 20.9375 141.33984375 C23.9375 142.33984375 23.9375 142.33984375 25.75 144.65234375 C29.61647487 149.4025843 34.79715034 152.72126561 40.8984375 153.6328125 C47.33265745 154.05047239 52.78689949 152.24335004 57.9375 148.33984375 C59.40983383 145.28262774 59.40983383 145.28262774 58.9375 142.33984375 C57.05374325 140.0150059 57.05374325 140.0150059 53.9375 140.15234375 C51.01363397 140.13904766 51.01363397 140.13904766 48.9375 141.33984375 C44.398281 141.8838366 40.9830731 141.96273836 37 139.58984375 C33.73396384 136.02689521 32.67035584 133.42274518 32.8125 128.58984375 C32.83054687 127.790625 32.84859375 126.99140625 32.8671875 126.16796875 C32.89039063 125.5646875 32.91359375 124.96140625 32.9375 124.33984375 C33.56398438 124.15808594 34.19046875 123.97632813 34.8359375 123.7890625 C35.65320313 123.53769531 36.47046875 123.28632813 37.3125 123.02734375 C38.12460937 122.78371094 38.93671875 122.54007812 39.7734375 122.2890625 C42.26934629 121.4261619 42.26934629 121.4261619 43.9375 118.33984375 C44.00878066 115.13221404 43.63694475 113.15266004 41.515625 110.6875 C36.99678534 106.59854996 32.93452677 104.63954643 26.8125 104.02734375 C23.48575565 104.3889464 22.1334381 104.80606902 19.9375 107.33984375 C19.21164745 112.10973194 20.49126972 114.36471954 22.9375 118.33984375 C23.4375 120.96484375 23.4375 120.96484375 22.9375 123.33984375 C19.99285493 126.18633398 17.01665202 126.63712624 13.0625 126.90234375 C8.376725 126.72828079 5.79336293 125.60959777 2.46875 122.33203125 C0.13055688 119.28999428 -1.46703843 116.00880154 -3.01953125 112.51171875 C-3.98262479 110.19883862 -3.98262479 110.19883862 -6.0625 108.33984375 C-8.63311311 107.69216582 -8.63311311 107.69216582 -11.0625 107.33984375 C-14.59981802 97.17005445 -15.44872377 87.64068329 -15.4375 76.90234375 C-15.43878906 75.70641602 -15.44007813 74.51048828 -15.44140625 73.27832031 C-15.36021317 66.67031084 -14.7702338 60.72676817 -13.0625 54.33984375 C-14.06410156 54.74976563 -15.06570313 55.1596875 -16.09765625 55.58203125 C-17.44002807 56.12648975 -18.7824803 56.67075 -20.125 57.21484375 C-20.78177734 57.48425781 -21.43855469 57.75367188 -22.11523438 58.03125 C-29.22443572 60.9029471 -36.29681821 63.57153796 -44.0625 62.33984375 C-47.3567246 60.03388653 -48.36567445 58.19819262 -49.0625 54.33984375 C-49.88979422 40.18038504 -50.25383793 18.8497873 -40.4609375 7.48046875 C-33.99784653 1.50139781 -27.09319065 0.98212525 -18.625 0.71484375 C-17.11667603 0.66662476 -17.11667603 0.66662476 -15.57788086 0.61743164 C-13.46610932 0.55422461 -11.35420057 0.49546109 -9.2421875 0.44091797 C-6.15695116 0.34284611 -3.08157661 0.17705022 0 0 Z " fill="#FDB662" transform="translate(300.0625,132.66015625)"/>
<path d="M0 0 C2.87824877 1.7056289 4.87434415 4.11178346 7.0234375 6.625 C15.01738703 16.03937576 15.01738703 16.03937576 24.8984375 23.125 C23.61416787 27.40589876 21.92052521 31.18612871 19.80078125 35.09765625 C16.2989883 42.96532093 17.1419388 51.85680364 19.9609375 59.75 C27.50601224 77.60879035 44.02211122 87.87413073 61.0859375 95.5 C80.61275979 103.42456241 101.13156648 103.56832023 121.8984375 104.125 C125.56182552 113.80681119 126.23604607 123.55391688 126.1484375 133.8125 C126.14239502 134.95154785 126.13635254 136.0905957 126.13012695 137.26416016 C125.74383078 170.27960672 125.74383078 170.27960672 119.8984375 176.125 C70.83673378 178.98068531 20.1223094 160.10332186 -16.703125 128.05078125 C-19.37026055 125.65628092 -21.9595899 123.18965148 -24.51708984 120.67871094 C-26.20477528 119.02379104 -27.91263509 117.39126111 -29.62109375 115.7578125 C-37.02676467 108.59986649 -43.70555437 101.14173057 -49.81689453 92.84960938 C-51.12081113 91.09915957 -52.4654757 89.38619955 -53.81640625 87.671875 C-54.66340534 86.5535553 -55.50853879 85.4338195 -56.3515625 84.3125 C-57.09921875 83.33667969 -57.846875 82.36085938 -58.6171875 81.35546875 C-60.92389375 76.33534752 -60.13838668 72.16040676 -58.38330078 67.0222168 C-57.51128494 64.92701927 -56.55401821 62.90467265 -55.5390625 60.875 C-55.18046143 60.14047607 -54.82186035 59.40595215 -54.45239258 58.64916992 C-46.77986368 43.20847816 -36.85633548 28.81465624 -24.1015625 17.125 C-23.51503906 16.56941406 -22.92851562 16.01382812 -22.32421875 15.44140625 C-18.06371996 11.54120334 -13.49183069 8.05642866 -8.8515625 4.625 C-8.24876465 4.16689941 -7.6459668 3.70879883 -7.02490234 3.23681641 C-2.78279938 0.16551967 -2.78279938 0.16551967 0 0 Z " fill="#FEF8D8" transform="translate(190.1015625,348.875)"/>
<path d="M0 0 C9.99214754 3.52227835 22.02803178 12.0632008 27.37109375 21.39453125 C28.95246212 24.78161437 30 27.2318062 30 31 C31.02996094 30.95359375 32.05992187 30.9071875 33.12109375 30.859375 C57.87880466 30.08432037 77.00566152 39.0469422 95.41796875 55.109375 C101.7907735 61.10996284 106.69509752 68.1738556 111.75585938 75.26855469 C115.80038812 80.89724344 119.94354939 86.25000094 125 91 C123.69546351 94.6208842 122.08696731 97.3510947 119.8125 100.4375 C115.63048634 106.79728426 113.67207118 113.64225223 111.66137695 120.94311523 C109.20979648 129.48085593 105.05709074 137.35432741 98 143 C94.04677169 143.87227941 90.2582073 144.12810921 86.21875 144.1328125 C85.13698486 144.13514893 84.05521973 144.13748535 82.94067383 144.13989258 C77.29331347 144.1154486 71.64690298 144.07768033 66 144 C65.27119629 143.99274902 64.54239258 143.98549805 63.79150391 143.97802734 C40.91151168 143.61249267 17.35878519 136.82518169 0.6875 120.7734375 C-8.74984659 110.65688794 -14.61571861 99.46045802 -14.4375 85.5 C-14.42992676 84.66484863 -14.42235352 83.82969727 -14.41455078 82.96923828 C-14.25071946 76.86442896 -13.4281533 72.15805219 -10 67 C-9.52949219 66.23558594 -9.05898437 65.47117187 -8.57421875 64.68359375 C-6.31661281 61.14259425 -4.10457358 58.07746991 -1.0625 55.1875 C2.17022732 50.19146687 0.8485047 45.67690048 0 40 C-1.04481106 32.51467506 -1.15391011 25.10556447 -1.13037109 17.55859375 C-1.12493866 15.4764909 -1.13038278 13.39459692 -1.13671875 11.3125 C-1.13542969 10.0028125 -1.13414062 8.693125 -1.1328125 7.34375 C-1.13168457 6.14943359 -1.13055664 4.95511719 -1.12939453 3.72460938 C-1 1 -1 1 0 0 Z " fill="#FDF7D8" transform="translate(212,225)"/>
<path d="M0 0 C14.20914453 -0.64000931 24.40907479 1.5339677 35.703125 10.546875 C40.28390065 13.08621802 44.46476398 13.04910172 49.625 13.27734375 C73.68869009 14.90716303 94.71369732 23.13479031 113.03515625 39.0078125 C115.5893752 41.06012571 117.16868185 42.09441489 120.25 42.96484375 C121.02085937 43.20203125 121.79171875 43.43921875 122.5859375 43.68359375 C124.10445769 44.10736683 125.63056524 44.50520668 127.1640625 44.87109375 C134.37125646 46.8065946 138.6676502 51.24193032 143.9375 56.33984375 C145.22180146 57.45256859 146.51304288 58.55735608 147.8125 59.65234375 C175.6986591 84.045691 175.6986591 84.045691 178.375 97.546875 C179.0788023 110.10534727 170.32662068 120.49432269 162.6875 129.52734375 C156.77782899 135.95309905 148.42129919 142.54863529 139.47265625 143.640625 C134.21537883 143.66554101 130.42181553 143.40230314 125.9375 140.33984375 C122.58261632 136.87592635 122.07220615 133.00225412 121.375 128.40234375 C121.26220703 127.71849609 121.14941406 127.03464844 121.03320312 126.33007812 C120.49011495 123.00176679 119.9851878 119.66903651 119.50170898 116.33154297 C114.71478125 81.20706024 114.71478125 81.20706024 95.9375 52.33984375 C95.34839844 51.81003906 94.75929688 51.28023437 94.15234375 50.734375 C76.19111114 35.52607897 54.53632184 34.01529857 31.98828125 35.62109375 C22.25410084 36.84226958 13.95718695 40.52375464 5.56542969 45.45068359 C-7.75166413 53.26869564 -28.03823638 64.88140974 -44.0625 62.33984375 C-47.3567246 60.03388653 -48.36567445 58.19819262 -49.0625 54.33984375 C-49.88979422 40.18038504 -50.25383793 18.8497873 -40.4609375 7.48046875 C-33.99784653 1.50139781 -27.09319065 0.98212525 -18.625 0.71484375 C-17.11667603 0.66662476 -17.11667603 0.66662476 -15.57788086 0.61743164 C-13.46610932 0.55422461 -11.35420057 0.49546109 -9.2421875 0.44091797 C-6.15695116 0.34284611 -3.08157661 0.17705022 0 0 Z " fill="#573002" transform="translate(300.0625,132.66015625)"/>
<path d="M0 0 C0.66 0 1.32 0 2 0 C17.70990194 19.1450117 25.63728434 46.13615429 32.0625 69.5625 C32.26665527 70.29299561 32.47081055 71.02349121 32.68115234 71.77612305 C33.97362145 76.79507546 34.82000991 81.83211811 34 87 C32.3046875 89.6796875 32.3046875 89.6796875 29.875 91.875 C28.95847656 92.70773437 28.04195313 93.54046875 27.09765625 94.3984375 C26.06922342 95.27050623 25.03652495 96.13756508 24 97 C23.47003418 97.44633789 22.94006836 97.89267578 22.39404297 98.35253906 C-3.07042018 119.58424256 -31.82571622 133.11382128 -64 141 C-64.99386719 141.24492188 -65.98773438 141.48984375 -67.01171875 141.7421875 C-72.4255124 142.95262222 -77.4562946 143.17882921 -83 143 C-82.85656032 141.31229485 -82.71011431 139.62484514 -82.5625 137.9375 C-82.48128906 136.99777344 -82.40007812 136.05804687 -82.31640625 135.08984375 C-82.09984257 132.97500582 -81.8206312 130.86590971 -81.48852539 128.76611328 C-81.00179581 125.01384418 -80.87060633 121.43429783 -80.8671875 117.65234375 C-80.86586823 116.96619492 -80.86454895 116.28004608 -80.8631897 115.57310486 C-80.86128813 113.36118928 -80.86757811 111.14940251 -80.875 108.9375 C-80.87632935 107.80939911 -80.87632935 107.80939911 -80.87768555 106.6585083 C-80.89509093 94.08479096 -81.24087762 81.5526308 -82 69 C-81.27039063 68.79246094 -80.54078125 68.58492188 -79.7890625 68.37109375 C-50.1357791 59.6215447 -24.14319137 45.5913131 -8.52734375 17.6484375 C-5.39940604 11.89227368 -2.29746572 6.14662295 0 0 Z " fill="#FDB662" transform="translate(415,380)"/>
<path d="M0 0 C0.721875 0.7425 1.44375 1.485 2.1875 2.25 C4.71892068 4.23992787 4.71892068 4.23992787 6.86230469 3.74658203 C7.60383789 3.54403809 8.34537109 3.34149414 9.109375 3.1328125 C15.96209891 1.61094887 22.79235611 1.62790189 29.77416992 1.62939453 C32.03447778 1.62505381 34.29277423 1.58872237 36.55273438 1.55078125 C52.32184583 1.42887698 66.36189358 5.33962287 81 11 C81.74475015 26.86041983 78.03541005 41.78015396 74 57 C73.01 57 72.02 57 71 57 C69.44921875 55.19921875 69.44921875 55.19921875 67.6875 52.6875 C58.04902727 40.20691352 39.49784136 26.00394573 23.7109375 23.66015625 C20.85322945 23.53026043 18.59529402 23.67354844 16.0625 25.0625 C14.38123793 28.12833083 14.05919622 30.50742298 14 34 C16.90964493 39.72001063 20.6874023 41.95998693 26.125 44.875 C32.95425019 48.71686021 39.14508603 52.74779777 45 58 C45.680625 58.5878125 46.36125 59.175625 47.0625 59.78125 C53.66909095 65.87170103 62.38005425 76.35090249 63.3828125 85.48828125 C63.29371486 91.14598113 60.63815991 95.38497756 57.875 100.1875 C57.34382568 101.13423584 56.81265137 102.08097168 56.26538086 103.05639648 C41.05641642 129.72226611 41.05641642 129.72226611 32 138 C29.58250848 135.58250848 29.26655637 133.95586747 28.37109375 130.671875 C28.06300781 129.57270752 27.75492187 128.47354004 27.4375 127.34106445 C27.1075 126.15601318 26.7775 124.97096191 26.4375 123.75 C21.13876897 105.33519884 14.0598906 87.88104086 5 71 C4.63374512 70.31679688 4.26749023 69.63359375 3.89013672 68.9296875 C0.29055435 62.26823247 -3.33661667 55.7458661 -7.8125 49.625 C-11.72169526 44.22958996 -13.80304244 38.55012517 -15.91796875 32.27734375 C-18.45992969 24.90046934 -21.62099318 17.93839497 -26.74609375 11.96484375 C-28 10 -28 10 -27.87426758 8.01538086 C-27 6 -27 6 -24.94628906 4.77978516 C-22.05285981 3.71042851 -19.16104703 2.64570889 -16.25 1.625 C-15.24710937 1.24472656 -14.24421875 0.86445313 -13.2109375 0.47265625 C-12.23898437 0.12332031 -11.26703125 -0.22601563 -10.265625 -0.5859375 C-8.93192871 -1.06619385 -8.93192871 -1.06619385 -7.57128906 -1.55615234 C-4.37137707 -2.10851087 -2.8383252 -1.5116514 0 0 Z " fill="#FDB562" transform="translate(435,309)"/>
<path d="M0 0 C0.99 0.495 0.99 0.495 2 1 C7.68016639 18.82605411 3.35981714 36.16819089 -4.87182617 52.32983398 C-7.72790884 57.71680503 -10.87492083 62.48638632 -15 67 C-15.77730469 67.86882812 -16.55460937 68.73765625 -17.35546875 69.6328125 C-29.97589794 83.01755128 -44.56787983 90.45341631 -62 96 C-62.82419434 96.29060303 -63.64838867 96.58120605 -64.49755859 96.88061523 C-75.11244657 100.15243271 -86.26900565 99.32418217 -97.25 99.1875 C-99.36327171 99.17242604 -101.47655383 99.15874244 -103.58984375 99.14648438 C-108.72682273 99.11369351 -113.86329467 99.06206057 -119 99 C-117.54007833 94.62023498 -114.10314586 93.59841134 -110.25 91.5 C-97.02065897 83.99596202 -85.59209986 74.33689405 -76.7578125 61.82421875 C-73.36535257 58.35007069 -70.48478246 57.80754182 -65.875 57.125 C-50.33830968 54.2151663 -36.33146656 47.89786344 -24 38 C-23.34128906 37.47277344 -22.68257813 36.94554687 -22.00390625 36.40234375 C-12.49853076 27.81896773 -6.34649989 15.70852728 -2.05859375 3.8515625 C-1 1 -1 1 0 0 Z " fill="#FDF7D7" transform="translate(397,333)"/>
<path d="M0 0 C0.73088333 -0.00524185 1.46176666 -0.0104837 2.21479797 -0.0158844 C3.76729062 -0.02230421 5.3198319 -0.02096805 6.87231445 -0.01245117 C9.18601168 -0.00409503 11.49710363 -0.03244259 13.81054688 -0.06445312 C29.69024512 -0.13986589 43.80708823 3.73238758 58.55078125 9.43359375 C59.2955314 25.29401358 55.5861913 40.21374771 51.55078125 55.43359375 C50.56078125 55.43359375 49.57078125 55.43359375 48.55078125 55.43359375 C47 53.6328125 47 53.6328125 45.23828125 51.12109375 C34.91263662 37.75070775 15.84272177 23.9056087 -1.07421875 21.68359375 C-2.18796875 21.60109375 -3.30171875 21.51859375 -4.44921875 21.43359375 C-4.95582031 20.11294922 -4.95582031 20.11294922 -5.47265625 18.765625 C-5.91867187 17.60417969 -6.3646875 16.44273437 -6.82421875 15.24609375 C-7.48550781 13.52326172 -7.48550781 13.52326172 -8.16015625 11.765625 C-9.23774018 8.98023381 -10.33286305 6.20361654 -11.44921875 3.43359375 C-7.93418287 0.05949487 -4.64258039 -0.01970618 0 0 Z " fill="#FCE3A3" transform="translate(457.44921875,310.56640625)"/>
<path d="M0 0 C9.19117466 1.84859529 18.35562332 2.32483406 27.703125 2.73828125 C29.36463296 2.81996015 31.02609214 2.9026378 32.6875 2.98632812 C36.6922424 3.18593804 40.69739083 3.3722286 44.703125 3.55078125 C33.28887049 17.33352415 16.31083963 29.54802141 -1.9453125 31.890625 C-9.32201144 32.17434419 -15.46662341 30.41981532 -21.609375 26.36328125 C-25.78563785 21.99277361 -28.46397988 17.57433107 -28.734375 11.42578125 C-28.19279595 6.62893819 -27.11064476 3.28622913 -23.578125 -0.09375 C-17.07780882 -3.9560954 -7.02341107 -1.51168888 0 0 Z " fill="#FCB561" transform="translate(255.296875,385.44921875)"/>
<path d="M0 0 C0 0.66 0 1.32 0 2 C-1.40625 3.1640625 -1.40625 3.1640625 -3.5 4.625 C-19.80713278 17.02253628 -32.51502086 32.8182483 -42.09741211 50.81054688 C-43.76734791 53.93696505 -45.25635473 56.70219708 -48 59 C-54.63054065 47.1139156 -60.00894604 33.49492128 -62 20 C-22.16679367 -0.3821861 -22.16679367 -0.3821861 0 0 Z " fill="#FBE1A2" transform="translate(165,341)"/>
<path d="M0 0 C1.98201923 0.06576836 3.96174177 0.20439777 5.9375 0.375 C7.68933594 0.52388672 7.68933594 0.52388672 9.4765625 0.67578125 C13.98727806 1.09084709 18.49548804 1.52209467 23 2 C22.54283095 14.11497983 14.85003307 23.32293408 7 32 C6.40832031 32.66 5.81664062 33.32 5.20703125 34 C-0.93568261 40.07491349 -9.10925802 42.84944889 -17 46 C-18.60580515 41.98548713 -17.29740222 39.25178758 -15.875 35.3125 C-14.36868793 31.08916575 -12.93201675 26.89108496 -11.796875 22.55078125 C-9.40358385 13.44447836 -6.81499461 6.81499461 0 0 Z " fill="#FBB461" transform="translate(355,323)"/>
<path d="M0 0 C11.25445061 2.04850746 23.99403634 19.41444241 31 28 C31.51691406 28.61617187 32.03382813 29.23234375 32.56640625 29.8671875 C36.05313982 34.29448408 36.05313982 34.29448408 35.81640625 37.4375 C33.37299514 45.10677125 25.87104982 51.74469443 20 57 C19.67 57 19.34 57 19 57 C18.84144531 56.01902344 18.68289063 55.03804687 18.51953125 54.02734375 C15.9491861 38.8535879 12.30143592 24.33358604 1.80078125 12.52734375 C-0.28699476 9.59721126 -0.43872348 8.22606521 -0.25 4.6875 C-0.21390625 3.80449219 -0.1778125 2.92148438 -0.140625 2.01171875 C-0.09421875 1.34785156 -0.0478125 0.68398437 0 0 Z " fill="#FBB461" transform="translate(422,198)"/>
<path d="M0 0 C6.02643779 -0.8312328 9.31848391 0.2849704 14.3359375 3.61328125 C16 5 16 5 18 8 C17.7994784 10.65305501 17.34667449 11.68408559 15.37109375 13.484375 C14.73300781 13.90203125 14.09492188 14.3196875 13.4375 14.75 C12.47650391 15.39195312 12.47650391 15.39195312 11.49609375 16.046875 C11.00238281 16.36140625 10.50867188 16.6759375 10 17 C10.46692647 21.35444226 10.46692647 21.35444226 12.625 25.0625 C14 27 14 27 13.8125 29.625 C13 32 13 32 11 34 C7.09586703 34.43379255 4.88098522 34.62596319 1.625 32.3125 C-0.14529127 29.79323935 -0.49333368 27.99529207 -1 25 C-1.73605469 25.05800781 -2.47210938 25.11601562 -3.23046875 25.17578125 C-11.20650636 25.54455446 -11.20650636 25.54455446 -15.1875 22.8125 C-17.14559996 19.77406903 -17.74103062 18.51989546 -17 15 C-15.78515625 13.33203125 -15.78515625 13.33203125 -14 12 C-11.58984375 11.92578125 -11.58984375 11.92578125 -8.9375 12.3125 C-7.62072266 12.49232422 -7.62072266 12.49232422 -6.27734375 12.67578125 C-5.52582031 12.78277344 -4.77429688 12.88976562 -4 13 C-3.34 13 -2.68 13 -2 13 C-2.02320313 12.31292969 -2.04640625 11.62585938 -2.0703125 10.91796875 C-2.08835938 10.01691406 -2.10640625 9.11585938 -2.125 8.1875 C-2.14820313 7.29417969 -2.17140625 6.40085937 -2.1953125 5.48046875 C-2 3 -2 3 0 0 Z " fill="#593407" transform="translate(248,315)"/>
<path d="M0 0 C1.25425781 -0.04962891 2.50851562 -0.09925781 3.80078125 -0.15039062 C12.7138509 -0.24838773 17.85820578 1.57889289 24.5 7.5625 C24.17 8.5525 23.84 9.5425 23.5 10.5625 C17.44579778 12.61278285 11.65812788 12.86050385 5.3125 13 C-3.02339086 13.286089 -10.45806798 14.27148448 -18.5 16.5625 C-20.10294867 16.96323717 -21.70696225 17.35976513 -23.3125 17.75 C-24.364375 18.018125 -25.41625 18.28625 -26.5 18.5625 C-26.7358396 12.78442976 -26.36783046 8.04925196 -24.5 2.5625 C-16.34426628 0.53187421 -8.38252733 0.09907406 0 0 Z " fill="#F9B25F" transform="translate(298.5,152.4375)"/>
<path d="M0 0 C4.57071175 0.34495938 7.58325171 0.85659158 11 4 C9.69615366 12.38403519 5.21857641 19.72269555 -1.38671875 24.9765625 C-5.2711702 27.44079078 -9.55070955 27.6078727 -14 27 C-18.34136085 24.74583187 -21.35319814 22.11724734 -24 18 C-24.9375 14.9375 -24.9375 14.9375 -25 12 C-23.5625 9.625 -23.5625 9.625 -22 8 C-19.75 8.1875 -19.75 8.1875 -17 9 C-15 11.5 -15 11.5 -13 14 C-10.36539052 14.87943404 -10.36539052 14.87943404 -8 15 C-5.61987999 12.0826529 -4.19510118 9.33103741 -2.875 5.8125 C-1.09176471 1.09176471 -1.09176471 1.09176471 0 0 Z " fill="#593203" transform="translate(382,226)"/>
<path d="M0 0 C1.48484412 0.39595843 2.9628831 0.81750706 4.4375 1.25 C5.26121094 1.48203125 6.08492188 1.7140625 6.93359375 1.953125 C9 3 9 3 9.875 4.87109375 C10.01864589 7.31756276 9.57769349 8.59712221 8.5625 10.8125 C6.56111309 15.71087161 6.31112291 19.93336874 8 25 C9.06541016 24.87431641 9.06541016 24.87431641 10.15234375 24.74609375 C11.53099609 24.59333984 11.53099609 24.59333984 12.9375 24.4375 C13.85402344 24.33308594 14.77054687 24.22867188 15.71484375 24.12109375 C16.84599609 24.06115234 16.84599609 24.06115234 18 24 C19 25 19 25 19.4375 27.25 C18.89656532 30.65016086 17.50366604 31.96348407 14.76953125 33.98046875 C11.72840909 35.73263847 9.500202 36.06034831 6 36 C1.43719717 34.69022733 -1.38932763 32.70227322 -4.5 29.125 C-7.19256741 23.5104536 -6.79984869 17.02552681 -6 11 C-4.62288416 7.10472949 -2.97322017 2.97322017 0 0 Z " fill="#5A3304" transform="translate(306,190)"/>
<path d="M0 0 C1.8125 0 1.8125 0 4 1 C4.88906872 2.7122805 5.7767796 4.4253061 6.65234375 6.14453125 C9.18944444 9.63764089 13.16170739 11.22027885 17 13 C14.87189499 15.30922033 13.50083993 16.24504222 10.5625 17.6875 C6.21666359 20.03535654 4.74497453 23.53459933 3 28 C1.68 28 0.36 28 -1 28 C-1.4021875 27.09507812 -1.4021875 27.09507812 -1.8125 26.171875 C-4.90002775 19.87494341 -7.46916667 17.54591808 -14 15 C-14 14.34 -14 13.68 -14 13 C-12.171875 11.703125 -12.171875 11.703125 -9.75 10.25 C-5.57019169 7.57518556 -3.40019944 5.30035733 -1 1 C-0.67 0.67 -0.34 0.34 0 0 Z " fill="#583306" transform="translate(138,236)"/>
<path d="M0 0 C8.79193739 2.14547277 8.79193739 2.14547277 11.9140625 5.99609375 C11.70353618 12.20662007 11.70353618 12.20662007 9.9140625 13.99609375 C5.45804183 14.55769966 1.93122629 14.52586655 -2.0859375 12.43359375 C-4.6989358 9.24900207 -5.0859375 7.08621099 -5.0859375 2.99609375 C-3.50423465 0.73939669 -2.80055608 -0.00524449 0 0 Z " fill="#5D380B" transform="translate(283.0859375,322.00390625)"/>
<path d="M0 0 C2.375 1.5625 2.375 1.5625 4 4 C4.56783945 7.97487617 4.62340519 10.06489221 2.375 13.4375 C-0.77963477 15.51291762 -2.29326397 15.75647674 -6 15 C-8.9375 12.375 -8.9375 12.375 -11 9 C-11.0704409 5.40751401 -10.71872721 3.79858579 -8.3125 1.125 C-5.26389315 -0.35810604 -3.35257076 -0.48891657 0 0 Z " fill="#593203" transform="translate(61,234)"/>
<path d="M0 0 C2.4375 1.0625 2.4375 1.0625 4 3 C4.56988508 6.91795996 4.59460908 9.07240983 2.4375 12.4375 C-0.90506283 14.58016848 -3.10495209 14.49573337 -7 14 C-8.9375 13 -8.9375 13 -10 11 C-10.52960415 7.41957756 -10.65886567 4.24021772 -8.9375 1 C-5.85873258 -0.58904125 -3.39844421 -0.35773097 0 0 Z " fill="#593203" transform="translate(557,232)"/>
<path d="M0 0 C5.37319053 0.20666117 8.95118983 1.43319104 13 5 C13.875 8.25 13.875 8.25 14 11 C12.5 12.5625 12.5 12.5625 10 14 C5.23007877 14 3.09741055 13.96023423 -0.5 10.8125 C-2.24026529 7.54950258 -2.48620214 5.64651603 -2 2 C-1.34 1.34 -0.68 0.68 0 0 Z " fill="#5C3709" transform="translate(229,294)"/>
<path d="M0 0 C2.62541413 2.20196024 2.9445448 3.61973579 3.4375 7 C3 10 3 10 1.375 12.375 C-1 14 -1 14 -4 14.5625 C-7 14 -7 14 -9.4375 11.9375 C-11.46887051 8.11852344 -11.16377498 6.11200491 -10 2 C-6.29584707 -0.46943529 -4.37855495 -0.46913089 0 0 Z " fill="#583203" transform="translate(71,207)"/>
<path d="M0 0 C3.5625 0.5 3.5625 0.5 6 2.1875 C7.5625 4.5 7.5625 4.5 8.0625 7 C7.38145125 10.40524375 6.4145847 11.52547983 3.5625 13.5 C0.07393969 13.92841969 -2.28652396 14.16830867 -5.375 12.375 C-6.94858304 9.59808875 -6.82170899 7.63770673 -6.4375 4.5 C-4.82303773 0.89120198 -3.95737975 0.57561887 0 0 Z " fill="#593203" transform="translate(543.4375,205.5)"/>
<path d="M0 0 C3.0625 0.3125 3.0625 0.3125 5 1.4375 C6.0625 3.3125 6.0625 3.3125 5.9375 6.3125 C4.64477848 10.74468807 4.64477848 10.74468807 2.0625 12.3125 C-1.10761158 12.23324721 -2.48844611 11.73161696 -4.8125 9.5625 C-5.9375 7.3125 -5.9375 7.3125 -5.75 4.6875 C-4.55020754 1.18041436 -3.71417409 0.3951249 0 0 Z " fill="#5A3405" transform="translate(140.9375,504.6875)"/>
<path d="M0 0 C6.57692308 0.57692308 6.57692308 0.57692308 8 2 C8.1875 5.4375 8.1875 5.4375 8 9 C6 11 6 11 3.0625 11.375 C0 11 0 11 -1.9375 9.3125 C-3.28233625 6.38550346 -3.03115662 5.01415011 -2 2 C-1.34 1.34 -0.68 0.68 0 0 Z " fill="#5E390A" transform="translate(60,424)"/>
<path d="M0 0 C3.0625 0.3125 3.0625 0.3125 5 1.5 C6.0625 3.3125 6.0625 3.3125 5.9375 5.8125 C4.98454015 8.53524244 4.51961489 9.78739421 2.0625 11.3125 C-1.0625 11.125 -1.0625 11.125 -3.9375 10.3125 C-5.31875018 7.54999964 -5.12829306 5.36518901 -4.9375 2.3125 C-2.9375 0.3125 -2.9375 0.3125 0 0 Z " fill="#5B3507" transform="translate(501.9375,466.6875)"/>
<path d="M0 0 C2.5625 0.3125 2.5625 0.3125 4.4375 1.4375 C5.5625 3.3125 5.5625 3.3125 5.3125 6.4375 C4.5625 9.3125 4.5625 9.3125 3.5625 10.3125 C-1.69200902 10.76941383 -1.69200902 10.76941383 -4.375 9.125 C-5.4375 7.3125 -5.4375 7.3125 -5.25 4.75 C-4.18108204 1.54324612 -3.41484064 0.43780008 0 0 Z " fill="#5B3507" transform="translate(240.4375,551.6875)"/>
<path d="M0 0 C6.57692308 0.57692308 6.57692308 0.57692308 8 2 C8.1875 4.9375 8.1875 4.9375 8 8 C6 10 6 10 2.375 10.125 C1.26125 10.08375 0.1475 10.0425 -1 10 C-2.38125018 7.23749964 -2.19079306 5.05268901 -2 2 C-1.34 1.34 -0.68 0.68 0 0 Z " fill="#5D3809" transform="translate(533,428)"/>
<path d="M0 0 C4.55555556 0.55555556 4.55555556 0.55555556 6 2 C6.1875 4.4375 6.1875 4.4375 6 7 C4 9 4 9 1.4375 9.1875 C-1 9 -1 9 -2 8 C-2.1875 5.0625 -2.1875 5.0625 -2 2 C-1.34 1.34 -0.68 0.68 0 0 Z " fill="#5B3506" transform="translate(439,524)"/>
<path d="M0 0 C1.32 0 2.64 0 4 0 C6 3 6 3 5.625 6.1875 C5.41875 7.115625 5.2125 8.04375 5 9 C3.02 9 1.04 9 -1 9 C-1.625 5.625 -1.625 5.625 -2 2 C-1.34 1.34 -0.68 0.68 0 0 Z " fill="#603B0B" transform="translate(179,535)"/>
<path d="M0 0 C0 1.98 0 3.96 0 6 C-2.875 6.625 -2.875 6.625 -6 7 C-8 5 -8 5 -8.125 2.375 C-8.08375 1.59125 -8.0425 0.8075 -8 0 C-5.13822943 -1.43088528 -3.06624227 -0.59991697 0 0 Z " fill="#5E3809" transform="translate(319,567)"/>
<path d="M0 0 C2.625 0.375 2.625 0.375 5 1 C5.625 3.375 5.625 3.375 6 6 C5.34 6.66 4.68 7.32 4 8 C1.375 7.625 1.375 7.625 -1 7 C-1.625 4.625 -1.625 4.625 -2 2 C-1.34 1.34 -0.68 0.68 0 0 Z " fill="#5A3506" transform="translate(89,458)"/>
<path d="M0 0 C2.5 0.125 2.5 0.125 3.5 1.125 C3.625 3.625 3.625 3.625 3.5 6.125 C2.5 7.125 2.5 7.125 0 7.25 C-2.5 7.125 -2.5 7.125 -3.5 6.125 C-3.625 3.625 -3.625 3.625 -3.5 1.125 C-2.5 0.125 -2.5 0.125 0 0 Z " fill="#5A3506" transform="translate(545.5,399.875)"/>
</svg>
